<svg width="18" height="20" viewBox="0 0 18 20" fill="none" xmlns="http://www.w3.org/2000/svg">
<path d="M2.58333 19.1667C2.07917 19.1667 1.64757 18.9872 1.28854 18.6282C0.929514 18.2691 0.75 17.8375 0.75 17.3334V4.50004C0.75 3.99587 0.929514 3.56428 1.28854 3.20525C1.64757 2.84622 2.07917 2.66671 2.58333 2.66671H3.5V1.75004C3.5 1.49032 3.58785 1.27261 3.76354 1.09692C3.93924 0.921221 4.15694 0.833374 4.41667 0.833374C4.67639 0.833374 4.8941 0.921221 5.06979 1.09692C5.24549 1.27261 5.33333 1.49032 5.33333 1.75004V2.66671H12.6667V1.75004C12.6667 1.49032 12.7545 1.27261 12.9302 1.09692C13.1059 0.921221 13.3236 0.833374 13.5833 0.833374C13.8431 0.833374 14.0608 0.921221 14.2365 1.09692C14.4122 1.27261 14.5 1.49032 14.5 1.75004V2.66671H15.4167C15.9208 2.66671 16.3524 2.84622 16.7115 3.20525C17.0705 3.56428 17.25 3.99587 17.25 4.50004V17.3334C17.25 17.8375 17.0705 18.2691 16.7115 18.6282C16.3524 18.9872 15.9208 19.1667 15.4167 19.1667H2.58333ZM2.58333 17.3334H15.4167V8.16671H2.58333V17.3334ZM2.58333 6.33337H15.4167V4.50004H2.58333V6.33337ZM9 11.8334C8.74028 11.8334 8.52257 11.7455 8.34688 11.5698C8.17118 11.3941 8.08333 11.1764 8.08333 10.9167C8.08333 10.657 8.17118 10.4393 8.34688 10.2636C8.52257 10.0879 8.74028 10 9 10C9.25972 10 9.47743 10.0879 9.65313 10.2636C9.82882 10.4393 9.91667 10.657 9.91667 10.9167C9.91667 11.1764 9.82882 11.3941 9.65313 11.5698C9.47743 11.7455 9.25972 11.8334 9 11.8334ZM5.33333 11.8334C5.07361 11.8334 4.8559 11.7455 4.68021 11.5698C4.50451 11.3941 4.41667 11.1764 4.41667 10.9167C4.41667 10.657 4.50451 10.4393 4.68021 10.2636C4.8559 10.0879 5.07361 10 5.33333 10C5.59306 10 5.81076 10.0879 5.98646 10.2636C6.16215 10.4393 6.25 10.657 6.25 10.9167C6.25 11.1764 6.16215 11.3941 5.98646 11.5698C5.81076 11.7455 5.59306 11.8334 5.33333 11.8334ZM12.6667 11.8334C12.4069 11.8334 12.1892 11.7455 12.0135 11.5698C11.8378 11.3941 11.75 11.1764 11.75 10.9167C11.75 10.657 11.8378 10.4393 12.0135 10.2636C12.1892 10.0879 12.4069 10 12.6667 10C12.9264 10 13.1441 10.0879 13.3198 10.2636C13.4955 10.4393 13.5833 10.657 13.5833 10.9167C13.5833 11.1764 13.4955 11.3941 13.3198 11.5698C13.1441 11.7455 12.9264 11.8334 12.6667 11.8334ZM9 15.5C8.74028 15.5 8.52257 15.4122 8.34688 15.2365C8.17118 15.0608 8.08333 14.8431 8.08333 14.5834C8.08333 14.3237 8.17118 14.1059 8.34688 13.9302C8.52257 13.7546 8.74028 13.6667 9 13.6667C9.25972 13.6667 9.47743 13.7546 9.65313 13.9302C9.82882 14.1059 9.91667 14.3237 9.91667 14.5834C9.91667 14.8431 9.82882 15.0608 9.65313 15.2365C9.47743 15.4122 9.25972 15.5 9 15.5ZM5.33333 15.5C5.07361 15.5 4.8559 15.4122 4.68021 15.2365C4.50451 15.0608 4.41667 14.8431 4.41667 14.5834C4.41667 14.3237 4.50451 14.1059 4.68021 13.9302C4.8559 13.7546 5.07361 13.6667 5.33333 13.6667C5.59306 13.6667 5.81076 13.7546 5.98646 13.9302C6.16215 14.1059 6.25 14.3237 6.25 14.5834C6.25 14.8431 6.16215 15.0608 5.98646 15.2365C5.81076 15.4122 5.59306 15.5 5.33333 15.5ZM12.6667 15.5C12.4069 15.5 12.1892 15.4122 12.0135 15.2365C11.8378 15.0608 11.75 14.8431 11.75 14.5834C11.75 14.3237 11.8378 14.1059 12.0135 13.9302C12.1892 13.7546 12.4069 13.6667 12.6667 13.6667C12.9264 13.6667 13.1441 13.7546 13.3198 13.9302C13.4955 14.1059 13.5833 14.3237 13.5833 14.5834C13.5833 14.8431 13.4955 15.0608 13.3198 15.2365C13.1441 15.4122 12.9264 15.5 12.6667 15.5Z" fill="#202020"/>
</svg>
