<svg width="20" height="20" viewBox="0 0 20 20" fill="none" xmlns="http://www.w3.org/2000/svg">
<path d="M7.24967 14.5834H12.7497C13.0094 14.5834 13.2271 14.4955 13.4028 14.3198C13.5785 14.1441 13.6663 13.9264 13.6663 13.6667C13.6663 13.407 13.5785 13.1893 13.4028 13.0136C13.2271 12.8379 13.0094 12.75 12.7497 12.75H7.24967C6.98995 12.75 6.77224 12.8379 6.59655 13.0136C6.42086 13.1893 6.33301 13.407 6.33301 13.6667C6.33301 13.9264 6.42086 14.1441 6.59655 14.3198C6.77224 14.4955 6.98995 14.5834 7.24967 14.5834ZM9.03717 9.26671L7.70801 7.93754C7.53995 7.76949 7.32606 7.68546 7.06634 7.68546C6.80662 7.68546 6.59273 7.76949 6.42467 7.93754C6.25662 8.1056 6.17259 8.31949 6.17259 8.57921C6.17259 8.83893 6.25662 9.05282 6.42467 9.22087L8.39551 11.1917C8.57884 11.375 8.79273 11.4667 9.03717 11.4667C9.28162 11.4667 9.49551 11.375 9.67884 11.1917L13.5747 7.29587C13.758 7.11254 13.8459 6.89483 13.8382 6.64275C13.8306 6.39067 13.7351 6.1806 13.5518 6.01254C13.3684 5.84449 13.1507 5.76428 12.8986 5.77192C12.6466 5.77955 12.4365 5.8674 12.2684 6.03546L9.03717 9.26671ZM9.99967 19.1667C8.73162 19.1667 7.53995 18.9261 6.42467 18.4448C5.3094 17.9636 4.33926 17.3105 3.51426 16.4855C2.68926 15.6605 2.03613 14.6903 1.55488 13.575C1.07363 12.4598 0.833008 11.2681 0.833008 10C0.833008 8.73199 1.07363 7.54032 1.55488 6.42504C2.03613 5.30976 2.68926 4.33962 3.51426 3.51462C4.33926 2.68962 5.3094 2.0365 6.42467 1.55525C7.53995 1.074 8.73162 0.833374 9.99967 0.833374C11.2677 0.833374 12.4594 1.074 13.5747 1.55525C14.69 2.0365 15.6601 2.68962 16.4851 3.51462C17.3101 4.33962 17.9632 5.30976 18.4445 6.42504C18.9257 7.54032 19.1663 8.73199 19.1663 10C19.1663 11.2681 18.9257 12.4598 18.4445 13.575C17.9632 14.6903 17.3101 15.6605 16.4851 16.4855C15.6601 17.3105 14.69 17.9636 13.5747 18.4448C12.4594 18.9261 11.2677 19.1667 9.99967 19.1667ZM9.99967 17.3334C12.0469 17.3334 13.7809 16.623 15.2018 15.2021C16.6226 13.7813 17.333 12.0473 17.333 10C17.333 7.95282 16.6226 6.21879 15.2018 4.79796C13.7809 3.37712 12.0469 2.66671 9.99967 2.66671C7.95245 2.66671 6.21842 3.37712 4.79759 4.79796C3.37676 6.21879 2.66634 7.95282 2.66634 10C2.66634 12.0473 3.37676 13.7813 4.79759 15.2021C6.21842 16.623 7.95245 17.3334 9.99967 17.3334Z" fill="#202020"/>
</svg>
