<svg width="20" height="20" viewBox="0 0 20 20" fill="none" xmlns="http://www.w3.org/2000/svg">
<path d="M10.0007 12.7041L12.5444 14.6291C12.7277 14.7513 12.9111 14.7551 13.0944 14.6405C13.2777 14.526 13.3312 14.3617 13.2548 14.1478L12.2923 10.9624L14.7902 9.17492C14.9736 9.03742 15.027 8.86554 14.9507 8.65929C14.8743 8.45304 14.7291 8.34992 14.5152 8.34992H11.4673L10.4361 5.00409C10.3597 4.7902 10.2145 4.68325 10.0007 4.68325C9.78676 4.68325 9.64162 4.7902 9.56523 5.00409L8.53398 8.34992H5.48607C5.27218 8.34992 5.12704 8.45304 5.05065 8.65929C4.97426 8.86554 5.02773 9.03742 5.21107 9.17492L7.70898 10.9624L6.74648 14.1478C6.6701 14.3617 6.72357 14.526 6.9069 14.6405C7.09023 14.7551 7.27357 14.7513 7.4569 14.6291L10.0007 12.7041ZM10.0007 19.1666C8.73259 19.1666 7.54093 18.926 6.42565 18.4447C5.31037 17.9635 4.34023 17.3103 3.51523 16.4853C2.69023 15.6603 2.03711 14.6902 1.55586 13.5749C1.07461 12.4596 0.833984 11.268 0.833984 9.99992C0.833984 8.73186 1.07461 7.5402 1.55586 6.42492C2.03711 5.30964 2.69023 4.3395 3.51523 3.5145C4.34023 2.6895 5.31037 2.03638 6.42565 1.55513C7.54093 1.07388 8.73259 0.833252 10.0007 0.833252C11.2687 0.833252 12.4604 1.07388 13.5757 1.55513C14.6909 2.03638 15.6611 2.6895 16.4861 3.5145C17.3111 4.3395 17.9642 5.30964 18.4454 6.42492C18.9267 7.5402 19.1673 8.73186 19.1673 9.99992C19.1673 11.268 18.9267 12.4596 18.4454 13.5749C17.9642 14.6902 17.3111 15.6603 16.4861 16.4853C15.6611 17.3103 14.6909 17.9635 13.5757 18.4447C12.4604 18.926 11.2687 19.1666 10.0007 19.1666ZM10.0007 17.3333C12.0326 17.3333 13.7628 16.619 15.1913 15.1905C16.6197 13.7621 17.334 12.0319 17.334 9.99992C17.334 7.96797 16.6197 6.23777 15.1913 4.80929C13.7628 3.38082 12.0326 2.66659 10.0007 2.66659C7.96871 2.66659 6.2385 3.38082 4.81003 4.80929C3.38155 6.23777 2.66732 7.96797 2.66732 9.99992C2.66732 12.0319 3.38155 13.7621 4.81003 15.1905C6.2385 16.619 7.96871 17.3333 10.0007 17.3333Z" fill="#7CAF2E"/>
</svg>
